<svg width="164" height="40" viewBox="0 0 164 40" fill="none" xmlns="http://www.w3.org/2000/svg">
<path d="M0 2.76558V1.22613H0.61807L5.11313 1.33609C7.73524 1.37274 10.5447 1.37274 13.5414 1.33609C17.025 1.26278 18.7481 1.22613 18.7107 1.22613H19.3849V2.76558V4.30504H16.5755C13.9534 4.34169 12.53 4.46998 12.3052 4.6899C12.2303 4.72656 12.1928 9.83975 12.1928 20.0295V35.2591L12.3052 35.3691C12.3427 35.4057 12.4551 35.479 12.6423 35.589C13.0544 35.7356 15.0397 35.7723 18.5983 35.699C18.9729 35.6623 19.2351 35.644 19.3849 35.644C23.0184 35.3141 25.4907 33.8663 26.8018 31.3005C27.5884 29.871 28.1503 27.7084 28.4874 24.8128C28.5623 24.0431 28.6185 23.6032 28.656 23.4933V23.2184H30.0607H31.4654V23.4933C31.4279 23.5666 31.1657 26.059 30.6788 30.9706C30.1918 35.9189 29.9296 38.4296 29.8921 38.503V38.7779H14.9461H0V37.2384V35.699H1.57327C4.19539 35.699 5.58136 35.5707 5.7312 35.3141V4.6899C5.58136 4.43333 4.19539 4.30504 1.57327 4.30504H0V2.76558Z" fill="#8D9F22"/>
<path d="M54.7835 0.0715336C59.3909 -0.331656 63.605 0.969551 67.4258 3.97516C68.2499 4.59827 69.2239 5.55127 70.3476 6.83415C72.8199 9.83975 74.337 13.4685 74.8989 17.7203C75.0487 18.9299 75.0674 20.3594 74.9551 22.0088C74.9176 22.1187 74.8989 22.2287 74.8989 22.3387C74.3745 26.6638 72.8012 30.3658 70.1791 33.4447C66.8452 37.2934 62.7622 39.456 57.93 39.9325C56.4317 40.0424 54.9521 39.9874 53.4912 39.7675C48.7339 38.9978 44.8195 36.6519 41.7478 32.73C39.7251 30.0909 38.4327 27.1037 37.8708 23.7682C37.6836 22.8518 37.5899 21.6239 37.5899 20.0845C37.5899 18.6183 37.7023 17.3171 37.927 16.1808C38.3391 13.7617 39.1444 11.5442 40.3431 9.5282C40.8676 8.64851 41.4856 7.75049 42.1973 6.83415C43.3586 5.51461 44.3512 4.56161 45.1753 3.97516C47.9847 1.70262 51.1875 0.401417 54.7835 0.0715336ZM57.8739 2.87554C56.7875 2.76558 55.9073 2.74726 55.233 2.82056C51.8242 3.22376 49.1647 4.98314 47.2543 8.0987C47.0295 8.46524 46.8235 8.8501 46.6362 9.25329C45.6997 11.1593 45.1004 13.5234 44.8382 16.3458C44.6884 17.592 44.6696 19.4064 44.782 21.7889C44.8195 22.0821 44.8382 22.302 44.8382 22.4486C45.1004 25.5275 45.6997 28.1116 46.6362 30.2009C48.2844 33.8296 50.7754 36.0655 54.1092 36.9085C54.2591 36.9452 54.4276 36.9818 54.6149 37.0185C55.7012 37.2384 56.8063 37.2384 57.93 37.0185C61.3388 36.3587 63.9234 34.2328 65.684 30.6407C65.7589 30.4941 65.8338 30.3475 65.9088 30.2009C66.8452 28.1116 67.4446 25.5275 67.7068 22.4486C67.8566 21.1291 67.8753 19.2964 67.763 16.9506C67.7255 16.694 67.7068 16.4924 67.7068 16.3458C67.4446 12.9736 66.6392 10.2246 65.2907 8.0987C63.4927 5.1664 61.0204 3.42535 57.8739 2.87554Z" fill="#8D9F22"/>
<path d="M99.8644 0.0715336C100.838 -0.00177291 101.794 -0.00177291 102.73 0.0715336C105.839 0.364764 108.48 1.61099 110.653 3.81021C110.952 4.06679 111.121 4.21341 111.158 4.25006L112.9 2.1608C113.949 0.951223 114.567 0.254802 114.754 0.0715336C114.792 0.0348803 114.998 0.0165537 115.372 0.0165537C115.672 0.0165537 115.878 0.0715347 115.99 0.181497L116.159 0.346436V8.15368V15.9059L115.99 16.0709L115.822 16.2358H114.586C113.687 16.2358 113.2 16.1625 113.125 16.0159C113.087 15.9426 113.012 15.6127 112.9 15.0263C112.263 10.0413 110.465 6.52259 107.506 4.46998C106.57 3.84687 105.558 3.42535 104.472 3.20543C103.685 3.05881 102.599 3.05881 101.213 3.20543C97.9166 3.64527 95.2383 4.87317 93.178 6.88913C91.3426 8.68516 90.1251 11.031 89.5258 13.9266C89.2261 15.4294 89.0763 17.4454 89.0763 19.9745C89.0763 22.5403 89.2261 24.5562 89.5258 26.0224C90.3499 29.9077 92.2228 32.785 95.1446 34.6543C97.2423 36.0472 99.7146 36.7986 102.561 36.9085C105.446 37.0185 107.543 36.2304 108.855 34.5444C109.192 34.1412 109.435 33.7197 109.585 33.2798L109.697 32.84L109.754 30.0909V27.2869L109.641 27.177C109.566 27.1403 109.416 27.0853 109.192 27.012C108.742 26.9021 107.206 26.8471 104.584 26.8471H102.73V25.3076V23.7682H103.404L108.517 23.8781C111.477 23.9148 113.986 23.9148 116.047 23.8781L119.586 23.7682H120.036V25.3076V26.8471H118.519C117.245 26.8837 116.515 26.9937 116.328 27.177L116.159 27.2869V32.8949V38.448L115.99 38.6129C115.803 38.7962 115.466 38.7595 114.979 38.503C113.631 37.6966 112.619 37.0002 111.945 36.4137L111.552 36.0288L111.271 36.3587C110.671 37.1284 109.81 37.7882 108.686 38.338C105.427 40.0241 101.681 40.4273 97.4483 39.5476C97.2236 39.5109 97.0176 39.4743 96.8303 39.4376C93.4215 38.5579 90.4435 36.8902 87.8963 34.4344C86.3605 32.9316 85.1057 31.2455 84.1317 29.3762C81.5096 24.318 81.0601 19.1131 82.7832 13.7617C83.1578 12.6987 83.6073 11.6541 84.1317 10.6278C86.3418 6.33932 89.6756 3.27874 94.1332 1.44605C94.9948 1.07951 95.8938 0.786283 96.8303 0.566359C97.9166 0.309784 98.928 0.144842 99.8644 0.0715336Z" fill="#8D9F22"/>
<path d="M143.756 0.0715336C148.364 -0.331656 152.578 0.969551 156.399 3.97516C157.223 4.59827 158.197 5.55127 159.32 6.83415C161.793 9.83975 163.31 13.4685 163.872 17.7203C164.021 18.9299 164.04 20.3594 163.928 22.0088C163.89 22.1187 163.872 22.2287 163.872 22.3387C163.347 26.6638 161.774 30.3658 159.152 33.4447C155.818 37.2934 151.735 39.456 146.903 39.9325C145.404 40.0424 143.925 39.9874 142.464 39.7675C137.707 38.9978 133.792 36.6519 130.721 32.73C128.698 30.0909 127.405 27.1037 126.844 23.7682C126.656 22.8518 126.563 21.6239 126.563 20.0845C126.563 18.6183 126.675 17.3171 126.9 16.1808C127.312 13.7617 128.117 11.5442 129.316 9.5282C129.84 8.64851 130.458 7.75049 131.17 6.83415C132.331 5.51461 133.324 4.56161 134.148 3.97516C136.957 1.70262 140.16 0.401417 143.756 0.0715336ZM146.847 2.87554C145.76 2.76558 144.88 2.74726 144.206 2.82056C140.797 3.22376 138.137 4.98314 136.227 8.0987C136.002 8.46524 135.796 8.8501 135.609 9.25329C134.672 11.1593 134.073 13.5234 133.811 16.3458C133.661 17.592 133.642 19.4064 133.755 21.7889C133.792 22.0821 133.811 22.302 133.811 22.4486C134.073 25.5275 134.672 28.1116 135.609 30.2009C137.257 33.8296 139.748 36.0655 143.082 36.9085C143.232 36.9452 143.4 36.9818 143.588 37.0185C144.674 37.2384 145.779 37.2384 146.903 37.0185C150.311 36.3587 152.896 34.2328 154.657 30.6407C154.732 30.4941 154.807 30.3475 154.881 30.2009C155.818 28.1116 156.417 25.5275 156.679 22.4486C156.829 21.1291 156.848 19.2964 156.736 16.9506C156.698 16.694 156.679 16.4924 156.679 16.3458C156.417 12.9736 155.612 10.2246 154.263 8.0987C152.465 5.1664 149.993 3.42535 146.847 2.87554Z" fill="#8D9F22"/>
</svg>
