<svg width="114" height="47" viewBox="0 0 114 47" fill="none" xmlns="http://www.w3.org/2000/svg">
<path d="M0 0.652777H4.49281V41.8431H18.6875V46.3472H0V0.652777Z" fill="#8D9F22"/>
<path d="M45.2567 12.4028C45.2567 10.7926 44.9529 9.50879 44.3451 8.55139C43.7374 7.55046 42.9778 6.78889 42.0662 6.26667C41.198 5.70093 40.2864 5.33102 39.3314 5.15694C38.3764 4.98287 37.5734 4.89583 36.9222 4.89583C36.2711 4.89583 35.468 5.00463 34.5131 5.22222C33.5581 5.3963 32.6465 5.7662 31.7783 6.33194C30.9101 6.85417 30.1505 7.61574 29.4993 8.61667C28.8916 9.57407 28.5877 10.8579 28.5877 12.4681V34.9236C28.5877 36.5773 28.8916 37.8829 29.4993 38.8403C30.1505 39.7542 30.9101 40.4722 31.7783 40.9944C32.6465 41.4731 33.5581 41.7778 34.5131 41.9083C35.468 42.0389 36.2711 42.1042 36.9222 42.1042C37.5734 42.1042 38.3764 42.0389 39.3314 41.9083C40.2864 41.7343 41.198 41.4079 42.0662 40.9292C42.9778 40.4069 43.7374 39.6889 44.3451 38.775C44.9529 37.8176 45.2567 36.5338 45.2567 34.9236V12.4028ZM49.6193 34.9236C49.6193 35.881 49.424 37.056 49.0333 38.4486C48.686 39.7977 48.0132 41.1032 47.0148 42.3653C46.0598 43.6273 44.7575 44.7153 43.108 45.6292C41.4585 46.4995 39.3748 46.9347 36.8571 46.9347C34.3828 46.9347 32.3426 46.4995 30.7365 45.6292C29.1304 44.7153 27.8281 43.6273 26.8297 42.3653C25.8747 41.1032 25.2019 39.7977 24.8112 38.4486C24.4205 37.056 24.2252 35.881 24.2252 34.9236V12.4681C24.2252 11.5106 24.3988 10.3356 24.7461 8.94306C25.1367 7.50694 25.8096 6.13611 26.7646 4.83056C27.7196 3.525 29.0218 2.41528 30.6714 1.50139C32.3209 0.543981 34.4045 0.0652775 36.9222 0.0652775C39.3965 0.0652775 41.4368 0.522221 43.0429 1.43611C44.6924 2.35 45.9947 3.45972 46.9497 4.76528C47.9481 6.07083 48.6426 7.44166 49.0333 8.87778C49.424 10.2704 49.6193 11.4454 49.6193 12.4028V34.9236Z" fill="#8D9F22"/>
<path d="M63.1323 34.5972C63.1323 35.7287 63.3494 36.7731 63.7835 37.7306C64.2176 38.688 64.7819 39.5366 65.4764 40.2764C66.2144 41.0162 67.0391 41.6037 67.9507 42.0389C68.9057 42.4306 69.9041 42.6264 70.9459 42.6264C71.38 42.6264 71.9443 42.5611 72.6389 42.4306C73.3768 42.2565 74.462 41.7995 75.8945 41.0597V28.7222H80.3873V43.8667C77.8262 45.2593 75.7209 46.1296 74.0714 46.4778C72.4652 46.8259 71.3583 47 70.7506 47C68.9708 47 67.343 46.6519 65.8671 45.9556C64.3912 45.2157 63.1106 44.2583 62.0254 43.0833C60.9402 41.8648 60.0937 40.4505 59.486 38.8403C58.9217 37.2301 58.6395 35.5111 58.6395 33.6833V13.3167C58.8132 9.18241 59.9852 5.94028 62.1556 3.59028C64.3695 1.19676 67.2779 0 70.8808 0C71.5319 0.043518 72.2916 0.152313 73.1598 0.326387C74.028 0.500462 74.8093 0.718056 75.5038 0.979167L79.9315 2.67639L78.3688 7.24583L73.4202 5.35278C72.4218 4.91759 71.5754 4.7 70.8808 4.7C69.839 4.7 68.8406 4.93935 67.8856 5.41806C66.9306 5.89676 66.1058 6.52778 65.4113 7.31111C64.7168 8.09444 64.1524 9.00833 63.7184 10.0528C63.3277 11.0972 63.1323 12.1852 63.1323 13.3167V34.5972Z" fill="#8D9F22"/>
<path d="M109.637 12.4028C109.637 10.7926 109.334 9.50879 108.726 8.55139C108.118 7.55046 107.358 6.78889 106.447 6.26667C105.579 5.70093 104.667 5.33102 103.712 5.15694C102.757 4.98287 101.954 4.89583 101.303 4.89583C100.652 4.89583 99.8487 5.00463 98.8937 5.22222C97.9387 5.3963 97.0272 5.7662 96.159 6.33194C95.2908 6.85417 94.5312 7.61574 93.88 8.61667C93.2723 9.57407 92.9684 10.8579 92.9684 12.4681V34.9236C92.9684 36.5773 93.2723 37.8829 93.88 38.8403C94.5312 39.7542 95.2908 40.4722 96.159 40.9944C97.0272 41.4731 97.9387 41.7778 98.8937 41.9083C99.8487 42.0389 100.652 42.1042 101.303 42.1042C101.954 42.1042 102.757 42.0389 103.712 41.9083C104.667 41.7343 105.579 41.4079 106.447 40.9292C107.358 40.4069 108.118 39.6889 108.726 38.775C109.334 37.8176 109.637 36.5338 109.637 34.9236V12.4028ZM114 34.9236C114 35.881 113.805 37.056 113.414 38.4486C113.067 39.7977 112.394 41.1032 111.395 42.3653C110.44 43.6273 109.138 44.7153 107.489 45.6292C105.839 46.4995 103.756 46.9347 101.238 46.9347C98.7635 46.9347 96.7233 46.4995 95.1172 45.6292C93.511 44.7153 92.2088 43.6273 91.2104 42.3653C90.2554 41.1032 89.5825 39.7977 89.1919 38.4486C88.8012 37.056 88.6058 35.881 88.6058 34.9236V12.4681C88.6058 11.5106 88.7795 10.3356 89.1267 8.94306C89.5174 7.50694 90.1903 6.13611 91.1453 4.83056C92.1003 3.525 93.4025 2.41528 95.0521 1.50139C96.7016 0.543981 98.7852 0.0652775 101.303 0.0652775C103.777 0.0652775 105.817 0.522221 107.424 1.43611C109.073 2.35 110.375 3.45972 111.33 4.76528C112.329 6.07083 113.023 7.44166 113.414 8.87778C113.805 10.2704 114 11.4454 114 12.4028V34.9236Z" fill="#8D9F22"/>
</svg>
